<?xml version="1.0" standalone="no"?>
<!DOCTYPE svg PUBLIC "-//W3C//DTD SVG 20010904//EN"
 "http://www.w3.org/TR/2001/REC-SVG-20010904/DTD/svg10.dtd">
<svg version="1.0" xmlns="http://www.w3.org/2000/svg"
 width="500.000000pt" height="500.000000pt" viewBox="0 0 500.000000 500.000000"
 preserveAspectRatio="xMidYMid meet">

<g transform="translate(0.000000,500.000000) scale(0.100000,-0.100000)"
fill="#000000" stroke="none">
<path d="M1900 3315 c-262 -53 -403 -212 -387 -436 5 -82 29 -148 80 -223 26
-37 27 -44 27 -172 l0 -134 173 0 c200 0 192 3 311 -111 88 -83 125 -150 133
-236 10 -114 -32 -191 -129 -234 -43 -19 -71 -23 -143 -24 -82 0 -96 3 -157
33 -74 36 -119 83 -162 169 -33 66 -72 201 -81 278 -11 102 -15 115 -36 115
-18 0 -19 -9 -19 -183 0 -101 -3 -246 -7 -321 l-6 -138 24 4 c18 2 25 12 32
41 15 61 34 64 135 19 158 -71 324 -95 502 -72 264 33 430 148 476 330 19 76
15 181 -11 250 -32 89 -50 80 154 80 l182 0 -3 -258 c-4 -313 -5 -318 -120
-337 -27 -4 -38 -11 -38 -23 0 -16 29 -17 385 -17 358 0 385 1 385 17 0 11
-10 20 -27 23 -72 15 -87 22 -107 48 -20 27 -21 43 -24 283 -3 225 -2 255 12
260 14 5 16 30 16 175 0 147 -2 169 -16 169 -14 0 -15 27 -12 243 4 298 7 305
118 323 28 5 40 12 40 23 0 15 -34 16 -385 17 -352 0 -385 -2 -385 -17 0 -11
12 -18 40 -23 111 -18 114 -25 118 -323 l3 -243 -382 0 -383 0 -111 85 c-148
112 -194 179 -195 288 -1 129 87 210 230 211 97 1 167 -31 239 -110 79 -86
125 -195 157 -371 3 -15 12 -23 24 -23 19 0 20 7 20 113 0 61 3 183 7 270 6
154 6 157 -14 157 -16 0 -25 -11 -35 -42 -21 -67 -33 -69 -145 -15 -54 26
-129 54 -168 62 -85 18 -246 18 -335 0z m-42 -755 c4 -12 2 -13 -9 -2 -18 17
-49 15 -49 -3 0 -9 12 -20 27 -26 35 -13 44 -28 32 -52 -12 -21 -70 -21 -77 1
-3 11 0 12 18 2 12 -6 28 -9 36 -6 23 9 16 35 -11 42 -56 14 -59 68 -3 62 17
-2 33 -10 36 -18z m107 -32 l18 -51 23 51 c13 29 28 52 33 52 7 0 11 -25 11
-60 0 -33 -4 -60 -10 -60 -5 0 -10 19 -11 43 l0 42 -20 -43 c-21 -49 -32 -48
-51 6 l-13 37 -6 -45 c-6 -43 -6 -43 -7 18 -1 34 2 62 6 62 4 0 16 -23 27 -52z
m223 -8 c12 -33 17 -60 13 -60 -5 0 -11 9 -14 20 -7 27 -42 26 -63 -2 l-16
-23 6 26 c9 41 36 99 45 99 5 0 18 -27 29 -60z m152 45 c11 -13 11 -20 0 -39
-9 -18 -9 -29 -1 -45 7 -11 8 -21 3 -21 -5 0 -14 11 -20 25 -15 33 -40 32 -45
-2 -2 -16 -5 0 -6 35 l-1 62 29 0 c16 0 34 -7 41 -15z m133 8 c-20 -4 -23 -11
-25 -61 l-2 -57 -3 57 c-3 49 -7 57 -26 61 -12 2 1 4 28 4 28 0 40 -2 28 -4z
m97 -53 c0 -33 -4 -60 -10 -60 -6 0 -10 27 -10 60 0 33 4 60 10 60 6 0 10 -27
10 -60z m106 18 l29 -43 3 43 c5 64 22 50 22 -18 0 -33 -4 -60 -8 -60 -5 0
-24 21 -43 48 l-34 47 -6 -50 -6 -50 -1 63 c-1 34 2 62 7 62 4 0 21 -19 37
-42z m145 -16 l15 -46 19 52 c11 29 22 52 26 52 4 0 -2 -27 -14 -60 -12 -33
-26 -59 -31 -57 -9 3 -21 32 -41 97 -13 44 9 11 26 -38z m172 51 c-25 -3 -33
-9 -33 -24 0 -14 7 -19 28 -20 l27 -2 -27 -4 c-22 -3 -28 -10 -28 -28 0 -19 6
-24 33 -28 28 -3 26 -4 -10 -5 l-43 -2 0 60 0 60 43 -2 c36 -1 38 -2 10 -5z
m165 -11 c3 -11 0 -11 -16 -1 -22 14 -56 5 -50 -13 3 -7 15 -15 28 -18 28 -7
45 -32 37 -54 -8 -21 -68 -19 -75 2 -3 11 0 11 16 1 21 -13 52 -7 52 11 0 6
-16 18 -35 27 -33 16 -45 40 -28 57 12 11 66 2 71 -12z m135 11 c-21 -4 -23
-10 -23 -59 0 -30 -4 -54 -10 -54 -5 0 -10 24 -10 54 0 44 -4 55 -17 59 -10 3
5 5 32 4 28 0 40 -2 28 -4z"/>
<path d="M2150 2551 c0 -5 -3 -16 -6 -25 -4 -11 0 -16 14 -16 15 0 19 5 15 20
-6 22 -23 38 -23 21z"/>
<path d="M2280 2544 c0 -21 4 -25 23 -22 14 2 23 11 25 26 3 18 -1 22 -22 22
-21 0 -26 -5 -26 -26z"/>
</g>
</svg>
